<svg xmlns="http://www.w3.org/2000/svg" viewBox="0 0 49.22 41.8"><defs><style>.cls-1{fill:#707070;}.cls-2{fill:none;stroke:#ffd400;stroke-miterlimit:10;stroke-width:2px;}</style></defs><title>10</title><g id="Calque_2" data-name="Calque 2"><g id="Calque_1-2" data-name="Calque 1"><path class="cls-1" d="M12.15,9.41a14,14,0,0,0,4.27-.64,20,20,0,0,0,4.26-2L15.34,31.9H10.51L14.94,11H11.75Z"/><path class="cls-1" d="M28.74,32.21c-2.49,0-4.27-.65-5.34-1.93s-1.61-3.59-1.61-6.9q0-7.26,3.24-12a9.83,9.83,0,0,1,8.41-4.7,5.08,5.08,0,0,1,4.5,2.17q1.47,2.16,1.47,6.6a22.5,22.5,0,0,1-.67,5.3,24.39,24.39,0,0,1-1.84,5.14,13.67,13.67,0,0,1-3.65,4.65A7.25,7.25,0,0,1,28.74,32.21ZM33.2,8.47A3.38,3.38,0,0,0,30.9,10a14.47,14.47,0,0,0-2.23,3.91,21.43,21.43,0,0,0-1,3.4A25.25,25.25,0,0,0,27.09,21C27,22.05,27,22.77,27,23.18s0,.78,0,1.14a10.72,10.72,0,0,0,.51,3.79c.33.85.83,1.28,1.48,1.28,1.74,0,3.2-1.59,4.36-4.75A32.92,32.92,0,0,0,35,13.34a11.34,11.34,0,0,0-.44-3.8A1.46,1.46,0,0,0,33.2,8.47Z"/><path class="cls-2" d="M37.07,41a23.6,23.6,0,0,0,0-40.1"/><path class="cls-2" d="M12.15.85a23.6,23.6,0,0,0,0,40.1"/></g></g></svg>