<svg xmlns="http://www.w3.org/2000/svg" viewBox="0 0 49.22 41.8"><defs><style>.cls-1{fill:#707070;}.cls-2{fill:none;stroke:#ffd400;stroke-miterlimit:10;stroke-width:2px;}</style></defs><title>2</title><g id="Calque_2" data-name="Calque 2"><g id="Calque_1-2" data-name="Calque 1"><path class="cls-1" d="M24.79,22.87a37.67,37.67,0,0,0-3.24,2.81,11.87,11.87,0,0,0-1.46,1.79h.17c.34,0,.69,0,1.07.05s1,.11,1.75.22,1.63.23,2.13.27,1,.07,1.46.07a6.46,6.46,0,0,0,1.41-.14,3.36,3.36,0,0,0,1.14-.47l.68-.55c.33-.28.76-.67,1.27-1.16a5.3,5.3,0,0,1,0,.59v.89c0,1.92-.31,3.24-.91,4a3.84,3.84,0,0,1-3.09,1.07,14.29,14.29,0,0,1-1.88-.11,23.44,23.44,0,0,1-2.42-.49,21.67,21.67,0,0,0-2.28-.49,14,14,0,0,0-1.75-.11,2.8,2.8,0,0,0-.67.11A10.81,10.81,0,0,0,17,31.7l-.49.21-.25.1c0-.14,0-.28-.05-.42s0-.38,0-.69a7.78,7.78,0,0,1,1-3.68A26.43,26.43,0,0,1,21.3,22.1c1.21-1.25,2.09-2.21,2.65-2.87a14.92,14.92,0,0,0,1.41-1.93,12.4,12.4,0,0,0,1.4-3,10.28,10.28,0,0,0,.45-3,3.09,3.09,0,0,0-.62-1.94,1.79,1.79,0,0,0-1.43-.81,3,3,0,0,0-2.08.6,2.89,2.89,0,0,0-.64,2.12,3.09,3.09,0,0,0,.35,1.46,1.56,1.56,0,0,0,.93.82,5,5,0,0,1-1.28.86,3.07,3.07,0,0,1-1.27.28,2.15,2.15,0,0,1-1.77-.82,3.47,3.47,0,0,1-.65-2.2A4.24,4.24,0,0,1,20.6,8.13a8.36,8.36,0,0,1,5.07-1.37,7.19,7.19,0,0,1,4.78,1.36,5,5,0,0,1,1.59,4,8.69,8.69,0,0,1-.58,3.14,11.57,11.57,0,0,1-1.76,3A22.53,22.53,0,0,1,28,20.17C27.28,20.81,26.23,21.71,24.79,22.87Z"/><path class="cls-2" d="M37.07,41a23.6,23.6,0,0,0,0-40.1"/><path class="cls-2" d="M12.15.85a23.6,23.6,0,0,0,0,40.1"/></g></g></svg>