<svg xmlns="http://www.w3.org/2000/svg" viewBox="0 0 49.22 41.8"><defs><style>.cls-1{fill:#707070;}.cls-2{fill:none;stroke:#ffd400;stroke-miterlimit:10;stroke-width:2px;}</style></defs><title>3</title><g id="Calque_2" data-name="Calque 2"><g id="Calque_1-2" data-name="Calque 1"><path class="cls-1" d="M16.18,26.37a5.3,5.3,0,0,1,1.08-3.51,3.67,3.67,0,0,1,3-1.3A3.21,3.21,0,0,1,22,22a1.89,1.89,0,0,1,.84,1.28,2.89,2.89,0,0,0-2.21,1,4,4,0,0,0-.74,2.6,3.45,3.45,0,0,0,.62,2.25,2.39,2.39,0,0,0,1.93.74,4.13,4.13,0,0,0,3.34-1.64,6.25,6.25,0,0,0,1.33-4A6.75,6.75,0,0,0,26,20.32a6.41,6.41,0,0,0-3.29-2.45,8.18,8.18,0,0,0,4.13-2.6,6,6,0,0,0,1.61-3.95,2.82,2.82,0,0,0-.69-2,2.43,2.43,0,0,0-1.86-.74,2.48,2.48,0,0,0-2.65,2.62,3.42,3.42,0,0,0,.33,1.54,1.51,1.51,0,0,0,.94.84,4.45,4.45,0,0,1-1.25.86,3.24,3.24,0,0,1-1.3.28,2.18,2.18,0,0,1-1.74-.78,3.09,3.09,0,0,1-.68-2.07,4.35,4.35,0,0,1,2-3.66,8.22,8.22,0,0,1,5-1.44A7,7,0,0,1,31,8.12a4.31,4.31,0,0,1,1.7,3.54,5.82,5.82,0,0,1-1.23,3.49A9,9,0,0,1,28.1,17.9,6.26,6.26,0,0,1,31.24,20a5.48,5.48,0,0,1,1.09,3.42,7.6,7.6,0,0,1-.79,3.33,8.93,8.93,0,0,1-2.2,2.89,9.18,9.18,0,0,1-3,1.79,9.83,9.83,0,0,1-3.51.62A7.48,7.48,0,0,1,18,30.61,5.16,5.16,0,0,1,16.18,26.37Z"/><path class="cls-2" d="M37.07,41a23.6,23.6,0,0,0,0-40.1"/><path class="cls-2" d="M12.15.85a23.6,23.6,0,0,0,0,40.1"/></g></g></svg>