<svg xmlns="http://www.w3.org/2000/svg" viewBox="0 0 49.22 41.8"><defs><style>.cls-1{fill:#707070;}.cls-2{fill:none;stroke:#ffd400;stroke-miterlimit:10;stroke-width:2px;}</style></defs><title>4</title><g id="Calque_2" data-name="Calque 2"><g id="Calque_1-2" data-name="Calque 1"><path class="cls-1" d="M27.58,31.91H22.74l2-9.24h-8.2c.14-.42.32-.91.56-1.46s.64-1.43,1.22-2.63a45.62,45.62,0,0,0,2.5-6,13.2,13.2,0,0,0,.63-3.79c0-.36,0-.71-.05-1a6.29,6.29,0,0,0-.19-1,4,4,0,0,1,2.69.88,2.87,2.87,0,0,1,1,2.31,8.49,8.49,0,0,1-.42,2.62,13.56,13.56,0,0,1-1.33,2.82c-.29.47-.8,1.24-1.54,2.32A29.77,29.77,0,0,0,20,20.19h5.23L28,7.39l5-.67L30.06,20.19h2.15l-.67,2.48h-2Z"/><path class="cls-2" d="M37.07,41a23.6,23.6,0,0,0,0-40.1"/><path class="cls-2" d="M12.15.85a23.6,23.6,0,0,0,0,40.1"/></g></g></svg>