<svg xmlns="http://www.w3.org/2000/svg" viewBox="0 0 49.22 41.8"><defs><style>.cls-1{fill:#707070;}.cls-2{fill:none;stroke:#ffd400;stroke-miterlimit:10;stroke-width:2px;}</style></defs><title>5</title><g id="Calque_2" data-name="Calque 2"><g id="Calque_1-2" data-name="Calque 1"><path class="cls-1" d="M21.23,7.26c3.14.38,5.15.57,6.05.57A14.26,14.26,0,0,0,30,7.58a14.89,14.89,0,0,0,2.72-.82c0,.31,0,.54.05.69s0,.28,0,.41a3.94,3.94,0,0,1-1,2.89,3.84,3.84,0,0,1-2.87,1,11.06,11.06,0,0,1-1.41-.1c-.53-.07-1.34-.21-2.41-.44-.54-.09-.93-.15-1.16-.2l-.62-.1L22,17a11.79,11.79,0,0,1,2.14-.78A8.74,8.74,0,0,1,26.17,16a5.33,5.33,0,0,1,4.33,1.89,7.68,7.68,0,0,1,1.58,5.06,8.86,8.86,0,0,1-2.6,6.63,9.81,9.81,0,0,1-7.14,2.53,6.87,6.87,0,0,1-4.45-1.21,4.43,4.43,0,0,1-1.46-3.62,4.89,4.89,0,0,1,1.21-3.49,4.17,4.17,0,0,1,3.16-1.28,2.69,2.69,0,0,1,1.61.44,2,2,0,0,1,.77,1.27,3.55,3.55,0,0,0-2.23,1,3.09,3.09,0,0,0-.79,2.22,2.23,2.23,0,0,0,.72,1.79,3,3,0,0,0,2,.62A3.54,3.54,0,0,0,26,28a7.72,7.72,0,0,0,1.2-4.36,5.82,5.82,0,0,0-1-3.6,3.22,3.22,0,0,0-2.72-1.27,6.54,6.54,0,0,0-2.23.45,15,15,0,0,0-2.77,1.43Z"/><path class="cls-2" d="M37.07,41a23.6,23.6,0,0,0,0-40.1"/><path class="cls-2" d="M12.15.85a23.6,23.6,0,0,0,0,40.1"/></g></g></svg>