<svg xmlns="http://www.w3.org/2000/svg" viewBox="0 0 49.22 41.8"><defs><style>.cls-1{fill:#707070;}.cls-2{fill:none;stroke:#ffd400;stroke-miterlimit:10;stroke-width:2px;}</style></defs><title>6</title><g id="Calque_2" data-name="Calque 2"><g id="Calque_1-2" data-name="Calque 1"><path class="cls-1" d="M28.55,22.37A5.22,5.22,0,0,0,28.1,20a1.42,1.42,0,0,0-1.33-.88,2.37,2.37,0,0,0-1.59.64,6.26,6.26,0,0,0-1.36,1.91,3.58,3.58,0,0,1-.5-1,2.79,2.79,0,0,1,1.2-3.36,5.67,5.67,0,0,1,3.36-1,4,4,0,0,1,3.31,1.58,6.24,6.24,0,0,1,1.23,4,10.39,10.39,0,0,1-2.67,7.22,8.34,8.34,0,0,1-6.4,2.95,6.79,6.79,0,0,1-4.94-1.59q-1.61-1.59-1.61-5.06v-.75a2.63,2.63,0,0,1,0-.49q.53-8.25,3.67-12.86a9.65,9.65,0,0,1,8.31-4.6,4.47,4.47,0,0,1,2.79.83,2.39,2.39,0,0,1,1.07,2,1.87,1.87,0,0,1-.8,1.56,3.82,3.82,0,0,1-2.18.69,1.66,1.66,0,0,0,.4-.55,1.72,1.72,0,0,0,.13-.66,1.87,1.87,0,0,0-.48-1.28,1.59,1.59,0,0,0-1.2-.53,4.07,4.07,0,0,0-2.93,1.58,12.52,12.52,0,0,0-2.47,4.49,25.64,25.64,0,0,0-1,3.8c-.28,1.41-.51,2.95-.68,4.63-.07.61-.12,1.1-.14,1.5s0,.74,0,1.05a5.3,5.3,0,0,0,.55,2.82,2.37,2.37,0,0,0,2.13.84c1.1,0,2.14-.74,3.13-2.23A8.64,8.64,0,0,0,28.55,22.37Z"/><path class="cls-2" d="M37.07,41a23.6,23.6,0,0,0,0-40.1"/><path class="cls-2" d="M12.15.85a23.6,23.6,0,0,0,0,40.1"/></g></g></svg>