<svg xmlns="http://www.w3.org/2000/svg" viewBox="0 0 49.22 41.8"><defs><style>.cls-1{fill:#707070;}.cls-2{fill:none;stroke:#ffd400;stroke-miterlimit:10;stroke-width:2px;}</style></defs><title>7</title><g id="Calque_2" data-name="Calque 2"><g id="Calque_1-2" data-name="Calque 1"><path class="cls-1" d="M17.63,10.08a2.94,2.94,0,0,1,1.1-2.55,5.9,5.9,0,0,1,3.46-.81h11Q31,9.94,27.35,15.81A78.24,78.24,0,0,0,23.1,23a13.53,13.53,0,0,0-.81,2.3,8.41,8.41,0,0,0-.27,2,4,4,0,0,0,.37,1.78,4.81,4.81,0,0,0,1.28,1.48,1.72,1.72,0,0,1-1,1,5.64,5.64,0,0,1-2.1.31,3.19,3.19,0,0,1-2.65-1,5.09,5.09,0,0,1-.81-3.19,11.7,11.7,0,0,1,1-4.43,26.87,26.87,0,0,1,3-5.21c.69-1,1.52-2.07,2.47-3.25s2.34-2.85,4.18-5c-.47-.07-.95-.12-1.45-.16s-1,0-1.41,0a12.79,12.79,0,0,0-4.11.61A6.67,6.67,0,0,0,17.89,12c-.09-.38-.15-.73-.2-1.06A7.25,7.25,0,0,1,17.63,10.08Z"/><path class="cls-2" d="M37.07,41a23.6,23.6,0,0,0,0-40.1"/><path class="cls-2" d="M12.15.85a23.6,23.6,0,0,0,0,40.1"/></g></g></svg>