<svg xmlns="http://www.w3.org/2000/svg" viewBox="0 0 49.22 41.8"><defs><style>.cls-1{fill:#707070;}.cls-2{fill:none;stroke:#ffd400;stroke-miterlimit:10;stroke-width:2px;}</style></defs><title>8</title><g id="Calque_2" data-name="Calque 2"><g id="Calque_1-2" data-name="Calque 1"><path class="cls-1" d="M32.13,23.14a7.89,7.89,0,0,1-.77,3.29,9.94,9.94,0,0,1-2.12,3,9.56,9.56,0,0,1-3,2,8.71,8.71,0,0,1-3.42.69,7,7,0,0,1-5.12-1.93,6.47,6.47,0,0,1-2-4.82,7.2,7.2,0,0,1,1.63-4.61,8.35,8.35,0,0,1,4.42-2.81,6,6,0,0,1-2.12-2,4.76,4.76,0,0,1-.74-2.58,6,6,0,0,1,2.19-4.6,7.59,7.59,0,0,1,5.3-2A7.32,7.32,0,0,1,31.06,8.1a4.28,4.28,0,0,1,1.71,3.53,5.89,5.89,0,0,1-1.26,3.52,9,9,0,0,1-3.44,2.75,5.92,5.92,0,0,1,3,2A5.13,5.13,0,0,1,32.13,23.14Zm-7.39-4.09a9.07,9.07,0,0,0-3,3.29,8.43,8.43,0,0,0-1.13,4.09,3.92,3.92,0,0,0,.64,2.35,2.06,2.06,0,0,0,1.75.87A3.24,3.24,0,0,0,25.73,28a7,7,0,0,0,1.13-4,7,7,0,0,0-.56-2.81A5.89,5.89,0,0,0,24.74,19.05ZM26.86,8.37a3.08,3.08,0,0,0-2.54,1.27,5,5,0,0,0-1,3.13A5.51,5.51,0,0,0,23.8,15a4.93,4.93,0,0,0,1.31,1.76,7.52,7.52,0,0,0,2.45-2.7,6.81,6.81,0,0,0,.94-3.34A3,3,0,0,0,28.07,9,1.38,1.38,0,0,0,26.86,8.37Z"/><path class="cls-2" d="M37.07,41a23.6,23.6,0,0,0,0-40.1"/><path class="cls-2" d="M12.15.85a23.6,23.6,0,0,0,0,40.1"/></g></g></svg>