<svg xmlns="http://www.w3.org/2000/svg" viewBox="0 0 49.22 41.8"><defs><style>.cls-1{fill:#707070;}.cls-2{fill:none;stroke:#ffd400;stroke-miterlimit:10;stroke-width:2px;}</style></defs><title>9</title><g id="Calque_2" data-name="Calque 2"><g id="Calque_1-2" data-name="Calque 1"><path class="cls-1" d="M21,16.23a5.39,5.39,0,0,0,.49,2.53,1.5,1.5,0,0,0,1.39.92,3,3,0,0,0,1.75-.48,3.33,3.33,0,0,0,1.07-1.53,3.79,3.79,0,0,1,.52.86,1.92,1.92,0,0,1,.19.82,2.6,2.6,0,0,1-1.33,2.18,5.5,5.5,0,0,1-3.17.91,4.12,4.12,0,0,1-3.44-1.68,6.7,6.7,0,0,1-1.3-4.2,10.17,10.17,0,0,1,2.52-7,8,8,0,0,1,6.18-2.84,6,6,0,0,1,4.87,1.93q1.61,1.93,1.61,6,0,7.83-3.12,12.64T21,32.07a4.27,4.27,0,0,1-2.84-.94A2.82,2.82,0,0,1,17,28.88a2.35,2.35,0,0,1,.7-1.88,3.32,3.32,0,0,1,2.18-.6,1.76,1.76,0,0,0-.35.52,1.59,1.59,0,0,0-.12.62,1.89,1.89,0,0,0,.53,1.31,1.62,1.62,0,0,0,1.25.57q2.79,0,4.62-3.58t2.33-10.29c0-.6,0-1,.05-1.2s0-.39,0-.54a8,8,0,0,0-.64-3.75,2.41,2.41,0,0,0-2.31-1.12c-1.08,0-2.06.77-2.94,2.3A9.74,9.74,0,0,0,21,16.23Z"/><path class="cls-2" d="M37.07,41a23.6,23.6,0,0,0,0-40.1"/><path class="cls-2" d="M12.15.85a23.6,23.6,0,0,0,0,40.1"/></g></g></svg>