<svg xmlns="http://www.w3.org/2000/svg" xmlns:xlink="http://www.w3.org/1999/xlink" viewBox="0 0 1371 475.07"><defs><style>.cls-1{fill:#da2627;}.cls-2{fill:url(#Dégradé_sans_nom_45);}.cls-3{fill:url(#Dégradé_sans_nom_29);}</style><linearGradient id="Dégradé_sans_nom_45" x1="-36.56" y1="-1405.23" x2="686.81" y2="-1405.23" gradientTransform="translate(1510.8 -539.49) rotate(-135)" gradientUnits="userSpaceOnUse"><stop offset="0" stop-color="#da2627"/><stop offset="1" stop-color="#f94355"/></linearGradient><linearGradient id="Dégradé_sans_nom_29" x1="309.33" y1="242.36" x2="1371" y2="242.36" gradientUnits="userSpaceOnUse"><stop offset="0" stop-color="#f94355"/><stop offset="0.99" stop-color="#da2627"/></linearGradient></defs><title>Fichier 3</title><g id="Calque_2" data-name="Calque 2"><g id="Calque_1-2" data-name="Calque 1"><path class="cls-1" d="M254.73,0H0V255C122.94,361.5,224.6,420.33,308.33,449.79c101.11,10.3,177.5,6.76,230.17-18.29,110.07-52.35,173.71-121.6,304-220C1007,87.26,1239.5,71.5,1370,9.65V0Z"/><path class="cls-2" d="M543,409C237,440,74.4,95.85,0,0,1,110,0,150,0,255c101.2,83.61,168,145,318,198l113,10,135-49,136-93S619.09,401.29,543,409Z"/><path class="cls-3" d="M534.5,413.5c-52.67,25.05-124.06,46.59-225.17,36.29C400.83,482,470.93,479.1,524,465c109.11-29,145-105,281-175,175.53-90.36,445.62-87.17,566-72V9.65C1240.32,22.08,963,56.26,798.5,180.5,668.21,278.9,644.57,361.15,534.5,413.5Z"/></g></g></svg>